<?xml version="1.0" encoding="utf-8"?>
<!-- Generator: Adobe Illustrator 27.1.1, SVG Export Plug-In . SVG Version: 6.00 Build 0)  -->
<svg version="1.1" id="Layer_1" xmlns="http://www.w3.org/2000/svg" xmlns:xlink="http://www.w3.org/1999/xlink" x="0px" y="0px"
	 viewBox="0 0 150.7 171.8" style="enable-background:new 0 0 150.7 171.8;" xml:space="preserve">
<style type="text/css">
	.st0{fill:#447099;}
</style>
<g>
	<g>
		<g>
			<path class="st0" d="M118.2,138.1c3,0,5.5,0,7.8,0.1c8.3,0.1,15.4,6.3,18.3,15.7c0.7,2.4,1.1,5,1.3,7.7c0.1,3.7,0.1,3.9,0.1,4.1
				c0,0.2,0,0.3,0,1.2l-30.2-0.1L85,166.7l0-0.6c0,0,0,0,0,0c0,0,0,0,0,0l0-0.1h0l0-3c0.2-9.1,3.2-16,9.3-20.9
				c3.2-2.6,6.7-3.8,10.7-4l0.8,0c2.1,0,4.1,0,6.2,0C114.1,138.1,116.1,138.1,118.2,138.1 M118.2,133.1c-4.1,0-8.2,0-12.4,0
				c-0.3,0-0.6,0-0.9,0c-5,0.2-9.6,1.7-13.8,5.1c-7.4,6-10.9,14.3-11.1,24.8c0,2.7,0,3.2,0,3.2c0,0,0-0.1,0-0.1c0,0,0,0.5,0,3.2
				c0,2.5,0,2.5,2.2,2.5c11.1,0,22.2,0,33.3,0.1c11.1,0,22.3,0,33.8,0.1c0,0,0,0,0,0c1.2,0,1.5-0.5,1.5-1.9c-0.2-7.6,0-0.9-0.2-8.6
				c-0.2-3-0.7-6-1.5-8.9c-3.5-11.6-12.6-19.1-23-19.3C123.5,133.1,120.8,133.1,118.2,133.1L118.2,133.1z M80,166
				C80,166,80,166,80,166C80,166,80,166,80,166L80,166z M80,166L80,166L80,166L80,166z"/>
		</g>
		<g>
			<path class="st0" d="M113,96.7c0.2,0,0.4,0,0.6,0l0.1,0l0.1,0l0.1,0c0.3,0,0.7,0,1,0c0.3,0,0.6,0,0.9,0c1.7,0,3.1,0.1,4.4,0.4
				c3.2,0.9,5.4,2.6,6.8,5.2c0.8,1.5,1.1,3,1,4.5l0,0.5l0.1,0.5c0.1,0.6,0.1,1.6,0.1,2.5c0,0.6,0,1.1,0,1.7c0,0.9,0.1,1.7,0,2.4
				l0,0.1l0,0.1c-0.3,4-2.2,6.6-6.2,8.5c-1.7,0.8-3.6,1.1-6.1,1.1c-1.3,0-2.8-0.1-4.6-0.3c-3.2-0.5-5.8-2.2-7.7-5.4
				c-0.6-1.1-1-2.2-1.1-3.4c0-0.7,0-1.4,0-2.1c0-3,0-5.9,0.3-8.5c0.2-1.7,1-4.3,5.5-6.7C109.8,97.1,111.4,96.7,113,96.7 M113,91.7
				c-2.4,0-4.7,0.6-6.8,1.7c-4.4,2.4-7.5,5.7-8.1,10.5c-0.4,3.8-0.3,7.7-0.3,11.4c0.1,2.1,0.7,3.9,1.8,5.7c2.5,4.2,6.2,7.1,11.3,7.8
				c1.7,0.2,3.5,0.4,5.2,0.4c2.8,0,5.5-0.4,8.2-1.6c5.5-2.6,8.6-6.8,9-12.7c0.2-1.5,0-3.1,0-4.6c0-1.1,0-2.2-0.1-3.2
				c0.2-2.5-0.4-4.9-1.6-7.1c-2.1-3.9-5.4-6.4-9.9-7.7c-1.9-0.5-3.8-0.6-5.7-0.6c-0.7,0-1.3,0-2,0c0,0-0.1,0-0.1,0
				C113.5,91.7,113.2,91.7,113,91.7L113,91.7z"/>
		</g>
	</g>
	<g>
		<g>
			<path class="st0" d="M38.2,137.9c3,0,5.5,0,7.8,0.1c8.3,0.1,15.4,6.3,18.3,15.7c0.7,2.4,1.1,5,1.3,7.7c0.1,3.7,0.1,3.9,0.1,4.1
				c0,0.2,0,0.3,0,1.2l-30.2-0.1L5,166.6l0-0.6c0,0,0,0,0,0c0,0,0,0,0,0l0-0.1h0l0-3c0.2-9.1,3.2-16,9.3-20.9
				c3.2-2.6,6.7-3.8,10.7-4l0.8,0c2.1,0,4.1,0,6.2,0C34.1,137.9,36.1,137.9,38.2,137.9 M38.2,132.9c-4.1,0-8.2,0-12.4,0
				c-0.3,0-0.6,0-0.9,0c-5,0.2-9.6,1.7-13.8,5.1c-7.4,6-10.9,14.3-11.1,24.8c0,2.7,0,3.2,0,3.2c0,0,0-0.1,0-0.1c0,0,0,0.5,0,3.2
				c0,2.5,0,2.5,2.2,2.5c11.1,0,22.2,0,33.3,0.1c11.1,0,22.3,0,33.8,0.1c0,0,0,0,0,0c1.2,0,1.5-0.5,1.5-1.9c-0.2-7.6,0-0.9-0.2-8.6
				c-0.2-3-0.7-6-1.5-8.9c-3.5-11.6-12.6-19.1-23-19.3C43.4,132.9,40.8,132.9,38.2,132.9L38.2,132.9z M0,165.8
				C0,165.8,0,165.8,0,165.8C0,165.8,0,165.8,0,165.8L0,165.8z M0,165.8L0,165.8L0,165.8L0,165.8z"/>
		</g>
		<g>
			<path class="st0" d="M32.9,96.6c0.2,0,0.4,0,0.6,0l0.1,0l0.1,0l0.1,0c0.3,0,0.7,0,1,0c0.3,0,0.6,0,0.9,0c1.7,0,3.1,0.1,4.4,0.4
				c3.2,0.9,5.4,2.6,6.8,5.2c0.8,1.5,1.1,3,1,4.5l0,0.5l0.1,0.5c0.1,0.6,0.1,1.6,0.1,2.5c0,0.6,0,1.1,0,1.7c0,0.9,0.1,1.7,0,2.4
				l0,0.1l0,0.1c-0.3,4-2.2,6.6-6.2,8.5c-1.7,0.8-3.6,1.1-6.1,1.1c-1.3,0-2.8-0.1-4.6-0.3c-3.2-0.5-5.8-2.2-7.7-5.4
				c-0.6-1.1-1-2.2-1.1-3.4c0-0.7,0-1.4,0-2.1c0-3,0-5.9,0.3-8.5c0.2-1.7,1-4.3,5.5-6.7C29.8,96.9,31.4,96.6,32.9,96.6 M32.9,91.6
				c-2.4,0-4.7,0.6-6.8,1.7c-4.4,2.4-7.5,5.7-8.1,10.5c-0.4,3.8-0.3,7.7-0.3,11.4c0.1,2.1,0.7,3.9,1.8,5.7c2.5,4.2,6.2,7.1,11.3,7.8
				c1.7,0.2,3.5,0.4,5.2,0.4c2.8,0,5.5-0.4,8.2-1.6c5.5-2.6,8.6-6.8,9-12.7c0.2-1.5,0-3.1,0-4.6c0-1.1,0-2.2-0.1-3.2
				c0.2-2.5-0.4-4.9-1.6-7.1c-2.1-3.9-5.4-6.4-9.9-7.7c-1.9-0.5-3.8-0.6-5.7-0.6c-0.7,0-1.3,0-2,0c0,0-0.1,0-0.1,0
				C33.5,91.6,33.2,91.6,32.9,91.6L32.9,91.6z"/>
		</g>
	</g>
	<g>
		<path class="st0" d="M44.4,1.5l0,5L124,6.6c4,0,7,1.6,9.2,4.9c1,1.6,1.6,3.3,1.6,4.9l0,4.8l0,5.6c0,2.5,0,4.9,0,7.4
			c0,6,0.1,12.1-0.2,18l0,0l0,0c-0.1,3.7-1.9,6.5-5.7,8.6c-1.5,0.8-3.2,1.2-5.3,1.2l-42.2-0.1l-1.6,0l-1.3,0.9l-13.1,9l1-3.5
			l1.8-6.4l-6.6,0c0,0-5.4,0-10.2,0c-5.8,0-6.8,0-7,0l-0.1,0l-0.1,0c-4.6-0.2-7.7-1.9-9.8-5.8l0-0.1l0-0.1c-0.7-1.1-1-2.5-1-3.8
			l0-10.4l0-10.4c0-2.8,0-4.5,0-5.8c0-2.7,0-3.5,0.1-9.6c0.1-3.5,1.7-6.1,5.1-8.2c1.6-1,3.4-1.4,5.7-1.4V1.5 M44.4,1.5
			c-3,0-5.8,0.6-8.4,2.2c-4.6,2.9-7.3,7-7.4,12.4c-0.2,9-0.1,6.5-0.1,15.5c0,6.9,0,13.9,0,20.8c0,2.2,0.6,4.4,1.7,6.3
			c3,5.5,7.7,8.2,14,8.4c0.7,0,3.9,0.1,7.3,0.1c4.8,0,10.2,0,10.2,0l-4.7,16.8l24.5-16.9c0,0,31.9,0.1,42.2,0.1c0,0,0,0,0,0
			c2.7,0,5.3-0.5,7.7-1.8c5.1-2.8,8.2-7.1,8.3-12.9c0.3-8.4,0.1-17,0.1-25.6c0-7.3,0-3.2,0-10.4c0-2.8-0.9-5.4-2.4-7.7
			c-3.2-4.7-7.7-7.1-13.4-7.1C101.3,1.6,67.1,1.5,44.4,1.5C44.4,1.5,44.4,1.5,44.4,1.5L44.4,1.5z"/>
	</g>
	<g>
		<path class="st0" d="M58.1,28.7l-9.2,6l0,0.1l9.2,6l0,3.5l-12.4-8.2l0-2.7l12.4-8.2L58.1,28.7z M68.5,39.4c-2.6,0-4.6-2.1-4.6-4.7
			S66,30,68.6,30c2.5,0,4.7,2.1,4.7,4.7C73.2,37.4,71.1,39.5,68.5,39.4z M84.1,39.5c-2.6,0-4.7-2.1-4.7-4.7s2.1-4.7,4.7-4.7
			c2.6,0,4.6,2.1,4.7,4.7C88.8,37.4,86.7,39.5,84.1,39.5z M99.7,39.5c-2.6,0-4.7-2.1-4.7-4.7c0-2.6,2.1-4.7,4.7-4.7
			c2.6,0,4.7,2.1,4.7,4.7C104.3,37.4,102.3,39.5,99.7,39.5z M122.5,36.2l-12.4,8.2l0-3.5l9.2-6l0-0.1l-9.2-6l0-3.5l12.4,8.2
			L122.5,36.2z"/>
	</g>
</g>
</svg>
