<?xml version="1.0" encoding="utf-8"?>
<!-- Generator: Adobe Illustrator 27.1.1, SVG Export Plug-In . SVG Version: 6.00 Build 0)  -->
<svg version="1.1" id="Layer_1" xmlns="http://www.w3.org/2000/svg" xmlns:xlink="http://www.w3.org/1999/xlink" x="0px" y="0px"
	 viewBox="0 0 130 145" style="enable-background:new 0 0 130 145;" xml:space="preserve">
<style type="text/css">
	.st0{fill:#447099;}
</style>
<g>
	<g>
		<path class="st0" d="M68.5,50.4c-13.6,0-9.2,0-22.8,0c-1.3,0-2.2-0.4-3-1.4c-0.4-0.6-0.5-1.4-0.5-2.2c0-3.1,0-6.3,0-9.4
			c0-5,0-10,0-15c0-1.1,0.2-2.1,1.1-2.8c0.4-0.4,1-0.7,1.7-0.7c0.4-0.1,0.7-0.1,1.1-0.1c26.9,0,35.9,0,62.8,0c0.9,0,1.8,0,2.6,0.6
			c0.7,0.6,1.2,1.3,1.3,2.3c0,0.2,0,0.4,0,0.5c0,8.2,0,16.4,0,24.6c0,0.9-0.2,1.7-0.8,2.4c-0.5,0.6-1.3,1-2.1,1.1
			c-0.3,0-0.6,0-0.9,0C95.5,50.4,82,50.4,68.5,50.4z M68.5,25.1c-12.4,0-6.7,0-19.1,0c-0.8,0-0.8,0-0.8,0.8c0,5.7,0,11.6,0,17.3
			c0,0.7,0,0.7,0.8,0.7c24.8,0,31.6,0,56.4,0c0.7,0,0.7,0,0.7-0.7c0-5.7,0-11.6,0-17.3c0-0.8,0-0.8-0.8-0.8
			C93.2,25.1,80.9,25.1,68.5,25.1z"/>
		<path class="st0" d="M68.5,69.3c-13.6,0-9.2,0-22.8,0c-1,0-1.9-0.3-2.6-1c-0.9-0.9-1.1-2.1-0.7-3.3c0.4-1.3,1.4-2,2.8-2.1
			c0.2,0,0.4,0,0.5,0c27.1,0,36.3,0,63.4,0c1.2,0,2.2,0.3,2.9,1.2c0.8,1.1,1,2.2,0.4,3.4c-0.5,1.1-1.4,1.7-2.7,1.7c-0.3,0-0.6,0-1,0
			C95.4,69.3,82,69.3,68.5,69.3z"/>
		<path class="st0" d="M68.5,107.3c-13.6,0-9.2,0-22.7,0c-1,0-1.9-0.3-2.6-1c-0.9-1-1.1-2.2-0.6-3.3c0.4-1.3,1.6-2,3.1-2.1
			c0.2,0,0.4,0,0.5,0c27,0,36,0,63,0c0.9,0,1.9,0.1,2.6,0.7c1,0.8,1.4,2.2,1.1,3.3c-0.4,1.4-1.5,2.2-3,2.3c-0.3,0-0.6,0-0.9,0
			C95.3,107.3,82,107.3,68.5,107.3z"/>
		<path class="st0" d="M80.2,88.3c-11.4,0-22.8,0-34.3,0c-1,0-1.8-0.2-2.6-0.8c-1-0.9-1.3-2.1-0.9-3.2c0.3-1.2,1.1-1.9,2.2-2.2
			c0.4-0.1,0.9-0.2,1.3-0.2c22.8,0,27.6,0,50.4,0c1.2,0,2.2,0.3,3,1.3c0.7,1,0.9,2.1,0.4,3.2c-0.5,1.2-1.4,1.8-2.7,1.9
			c-0.3,0-0.5,0-0.8,0C84.9,88.3,91.5,88.3,80.2,88.3z"/>
		<path class="st0" d="M80.2,126.2c-11.4,0-22.9,0-34.3,0c-0.9,0-1.8-0.1-2.5-0.7c-1.2-1-1.3-2.2-1-3.5c0.4-1.3,1.5-2.1,3-2.2
			c0.2,0,0.4,0,0.5,0c22.8,0,27.7,0,50.5,0c1,0,2,0.1,2.7,0.9c1,1,1.2,2.2,0.7,3.5c-0.4,1.1-1.5,1.9-2.8,2c-0.3,0-0.6,0-0.9,0
			C84.9,126.2,91.5,126.2,80.2,126.2z"/>
		<path class="st0" d="M20.1,18.9c0.8,0,1.5,0.3,2.1,0.8c1.3,1.3,2.7,2.7,4.1,4c2.8,2.8,5.6,5.5,8.3,8.3c0.4,0.4,0.9,0.9,1.2,1.4
			c0.5,1.1,0.4,2.2-0.4,3.1c-1.3,1.4-2.7,2.8-4,4.1c-2.9,2.9-5.7,5.7-8.5,8.5c-0.8,0.8-1.7,1.3-2.8,1.2c-2.3-0.1-3.3-2.4-2.7-4
			c0.2-0.5,0.5-1.1,1-1.5c3.2-3.2,6.5-6.5,9.7-9.7c0.4-0.4,0.4-0.5,0-1c-3.3-3.3-6.6-6.6-9.9-9.9c-2-1.9-0.8-4.6,1.3-5.3
			C19.5,18.9,19.9,18.9,20.1,18.9z"/>
	</g>
</g>
<g>
	<path class="st0" d="M126.2,3.8v137H4.2V3.8H126.2 M130.2-0.2H0.2v145h130V-0.2L130.2-0.2z"/>
</g>
</svg>
