<?xml version="1.0" encoding="utf-8"?>
<!-- Generator: Adobe Illustrator 27.1.1, SVG Export Plug-In . SVG Version: 6.00 Build 0)  -->
<svg version="1.1" id="Layer_1" xmlns="http://www.w3.org/2000/svg" xmlns:xlink="http://www.w3.org/1999/xlink" x="0px" y="0px"
	 viewBox="0 0 162.3 154" style="enable-background:new 0 0 162.3 154;" xml:space="preserve">
<style type="text/css">
	.st0{fill:#447099;}
	.st1{fill:#39729E;}
	.st2{fill:none;stroke:#447099;stroke-width:3;stroke-miterlimit:10;}
	.st3{fill:none;stroke:#39729E;stroke-width:3;stroke-miterlimit:10;}
</style>
<g>
	<g>
		<g>
			<path class="st0" d="M159.2,75.6v32.8H143v-4.6c0-0.6,0-1.4-0.3-2.3c-0.6-1.9-2.1-3.2-4.1-3.4l-0.2,0h-0.2H137H25.5
				c-0.1,0-0.2,0-0.3,0c-0.1,0-0.3,0-0.4,0c-0.6,0-2.1,0-3.4,1.1c-0.5,0.4-1.9,1.6-1.9,3.8v2.8c0,1,0,2,0,3c0,2,0,3.9,0,5.8
				c-0.1,1.9,0.4,3.4,1.5,4.5c1.6,1.6,3.8,1.6,4.5,1.6h4.2c-0.1,0.3-0.2,0.5-0.2,0.8c-0.4,1.2-0.7,2.4-1,3.5c-0.4,1.2-0.7,2.3-1,3.4
				c-0.3,1.1-0.6,2.2-1,3.3l-0.1,0.3c0,0,0,0,0,0h-4.9h-6.9c-3.9-0.1-7.1-1.8-9.4-5l0,0l0,0c-1.4-1.9-2.1-4.2-2.1-7V93V75.6H159.2
				 M133.6,85.9c0,2.1,0.8,4.2,2.3,5.8c1.6,1.6,3.7,2.5,6,2.5c4.7,0,8.3-3.6,8.3-8.3c0-4.6-3.7-8.3-8.3-8.3c-2.3,0-4.4,0.9-6,2.6
				C134.4,81.7,133.6,83.8,133.6,85.9 M161.1,72.6c-53.3,0-106.7,0-160,0c-1.1,0-1.1,0-1.1,1.1C0,80.1,0,86.6,0,93
				c0,9,0,17.9,0,26.9c0,3.1,0.7,6.1,2.7,8.8c2.8,4,6.8,6.2,11.8,6.3c2.3,0,4.6,0,6.9,0c2.2,0,4.3,0,6.5,0c0.5,0,0.8-0.1,0.9-0.7
				c0.1-0.6,0.3-1.1,0.5-1.7c0.7-2.3,1.3-4.5,2-6.8c0.7-2.4,1.4-4.7,2.1-7.1c0.3-0.9,0.2-1.1-0.7-1.1c-2.4,0-4.8,0-7.2,0
				c-1.9,0-3.1-0.6-3-3c0.1-3,0-5.9,0-8.9c0-1,0-1.9,0-2.8c0-0.7,0.3-1.1,0.8-1.5c0.4-0.4,1-0.4,1.5-0.4c0.2,0,0.5,0,0.7,0
				c37.2,0,74.3,0,111.5,0c0.4,0,0.8,0,1.2,0c0.8,0.1,1.4,0.6,1.6,1.4c0.2,0.5,0.2,0.9,0.2,1.4c0,2.2,0,4.5,0,6.7c0,0.3,0,0.6,0,0.9
				c7.4,0,14.8,0,22.2,0c0-0.2,0-0.3,0-0.4c0-12.5,0-24.9,0-37.3C162.2,72.7,162.2,72.6,161.1,72.6L161.1,72.6z M141.9,91.2
				c-3.1,0-5.4-2.5-5.3-5.3c-0.1-2.9,2.4-5.3,5.3-5.3c2.9,0,5.3,2.4,5.3,5.3C147.2,88.9,144.9,91.2,141.9,91.2L141.9,91.2z"/>
		</g>
		<g>
			<path class="st0" d="M118.5,108.4c0.2,0.8,0.5,1.5,0.7,2.3c0.3,1.2,0.7,2.3,1,3.5c0.3,1.1,0.6,2.2,1,3.4c0.3,1.1,0.6,2.2,0.9,3.3
				l0,0.1l0,0.1c0.3,1.1,0.7,2.2,1,3.3c0.3,1.1,0.7,2.3,1,3.4c0.5,1.7,1,3.4,1.5,5.2c0.2,0.8,0.5,1.7,0.7,2.6
				c0.3,0.9,0.5,1.8,0.8,2.6c0.2,0.8,0.5,1.7,0.7,2.6c0.3,0.9,0.5,1.8,0.7,2.6c0.5,1.8,1,3.6,1.6,5.4c0.2,0.7,0.4,1.5,0.6,2.4H31.4
				c0.1-0.3,0.1-0.5,0.2-0.8c0.6-2,1-3.6,1.6-5.2l0-0.1l0-0.1c0.2-0.8,0.5-1.6,0.8-2.5c0.3-0.9,0.6-1.7,0.8-2.6
				c0.2-0.7,0.4-1.3,0.6-2c0.2-0.6,0.3-1.2,0.5-1.8l0,0l0,0c0.2-0.9,0.5-1.7,0.8-2.6c0.3-0.9,0.6-1.8,0.8-2.7c0.5-1.7,1-3.4,1.5-5.2
				c0.6-2,1-3.6,1.6-5.2l0-0.1l0-0.1c0.5-1.7,1-3.4,1.5-5.2c0.2-0.9,0.5-1.7,0.8-2.6c0.3-0.9,0.6-1.8,0.8-2.8l0,0l0,0
				c0.1-0.2,0.1-0.5,0.2-0.7c0-0.1,0.1-0.2,0.1-0.3H118.5 M119.8,105.4c-25.8,0-51.5,0-77.2,0c-0.7,0-1,0.3-1.2,1
				c-0.1,0.8-0.4,1.5-0.6,2.3c-0.5,1.8-1.1,3.6-1.6,5.4s-1,3.5-1.5,5.2c-0.6,1.8-1.1,3.5-1.6,5.3c-0.5,1.8-1,3.5-1.5,5.2
				c-0.5,1.8-1.1,3.6-1.6,5.4c-0.4,1.3-0.7,2.5-1.1,3.8c-0.5,1.7-1.1,3.4-1.6,5.1c-0.6,1.8-1.1,3.5-1.6,5.3c-0.4,1.5-0.8,3-1.3,4.6
				c35.8,0,71.5,0,107.3,0c-0.6-2.1-1.1-4.1-1.6-6.2c-0.6-1.8-1.1-3.6-1.6-5.4c-0.5-1.7-1-3.5-1.5-5.2c-0.5-1.7-1-3.5-1.5-5.2
				c-0.5-1.8-1-3.5-1.5-5.2c-0.7-2.2-1.3-4.5-2-6.7c-0.6-2.2-1.3-4.5-1.9-6.7c-0.7-2.4-1.4-4.7-2.1-7.1
				C120.8,105.7,120.5,105.4,119.8,105.4L119.8,105.4z"/>
		</g>
		<path class="st0" d="M81.1,127.6c-10.7,0-21.3,0-32,0c-0.4,0-0.9,0-1.3,0c-1.5,0.2-2.3,2-1.4,3.2c0.6,0.9,1.5,1.1,2.5,1.1
			c21.5,0,42.9,0,64.4,0c0.3,0,0.5,0,0.8,0c0.9-0.1,1.6-0.6,1.9-1.4c0.3-0.8,0.2-1.5-0.4-2.2c-0.5-0.6-1.3-0.7-2-0.7
			C102.8,127.6,92,127.6,81.1,127.6z M81.1,114c-9.5,0-19,0-28.4,0c-0.4,0-0.9,0-1.3,0c-1.4,0.2-2.2,1.8-1.5,3.1
			c0.6,1,1.5,1.2,2.6,1.2c19.1,0,38.2,0,57.3,0c0.3,0,0.5,0,0.8,0c1.8-0.2,2.7-2.1,1.6-3.5c-0.5-0.7-1.3-0.8-2.2-0.8
			C100.3,114,90.7,114,81.1,114z M66.5,145.6c6.7,0,13.4,0,20.1,0c0.3,0,0.6,0,0.9,0c0.8-0.1,1.4-0.5,1.7-1.3
			c0.3-0.7,0.3-1.5-0.2-2.1c-0.6-0.8-1.4-0.9-2.3-0.9c-13.5,0-27,0-40.5,0c-0.3,0-0.6,0-0.9,0c-1,0.1-1.8,1-1.9,2
			c-0.1,1.2,1.1,2.4,2.4,2.3C52.7,145.5,59.6,145.6,66.5,145.6z"/>
		<g>
			<path class="st1" d="M91.4,2.9v19.6v0.9v0.2l0,0.2c0.4,2.5,2.1,4.2,4.6,4.5c0.3,0,0.6,0.1,0.8,0.1c0.2,0,0.4,0,0.6,0
				c0.1,0,0.1,0,0.2,0H117v24.1c-12,0.2-24.1,0.2-35.9,0.2h-36V2.9H91.4 M93.2-0.1c-16.7,0-33.3,0-50,0c-1.1,0-1.1,0-1.1,1.1
				c0,17.9,0,35.7,0,53.5c0,1.2,0,1.2,1.2,1.2c12.6,0,25.2,0,37.8,0s25.2,0,37.8-0.2c1.1,0,1.1,0,1.1-1.1c0-9.3,0-18.5,0-27.8
				c0-1.2,0-1.2-1.1-1.2c-7.1,0-14.1,0-21.2,0c-0.3,0-0.5,0-0.8,0c-0.1,0-0.3,0-0.4,0c-1.3-0.1-1.9-0.8-2.1-2c0-0.3,0-0.6,0-0.9
				c0-7.1,0-14.3,0-21.4C94.4-0.1,94.4-0.1,93.2-0.1L93.2-0.1z"/>
		</g>
		<g>
			<path class="st0" d="M137.4,50.7c4.1,4.2,8.3,8.3,12.3,12.3c0.7,0.7,1.3,1.3,2,2c-47.1,0.1-94.9,0.1-141.3,0.1l14.4-14.4h10v6.8
				c0,3.3,2,5.4,5.3,5.6l0.1,0h0.1H41h80c1.5,0,3.4-0.2,4.8-1.6c1.4-1.5,1.5-3.4,1.5-4.8c-0.1-1.7,0-3.4,0-5.3c0-0.2,0-0.5,0-0.7
				H137.4 M137.7,47.7c-4.1,0-8.3,0-12.5,0c-0.7,0-0.9,0.2-0.9,0.9c0,2.8-0.1,5.5,0,8.2c0.1,2.7-0.9,3.3-3.3,3.3
				c-26.6,0-53.3,0-80,0c-0.3,0-0.5,0-0.8,0c-1.7-0.1-2.5-0.9-2.5-2.6c0-3,0-6,0-9c0-0.6-0.2-0.8-0.8-0.8c-4.2,0-8.4,0-12.6,0
				c-0.5,0-0.9,0.1-1.3,0.5c-6.4,6.4-12.7,12.7-19.1,19.1c-0.2,0.2-0.3,0.4-0.6,0.8c51.9,0,103.7,0,155.5-0.1
				c-0.3-0.3-0.5-0.6-0.7-0.8c-6.3-6.3-12.7-12.6-19-19C138.7,47.9,138.3,47.7,137.7,47.7L137.7,47.7z"/>
		</g>
		<path class="st2" d="M139.4,116.9c0.4,0.1,0.6,0.1,0.9,0.1c7,0,14,0,21,0c0.3,0,0.6,0,0.9,0c0.2,4,0,7.9-2.3,11.3
			c-1.8,2.6-4.1,4.5-7.1,5.6c-1.9,0.7-3.9,0.9-5.9,0.9c-4,0-8.1,0-12.1,0c-0.7,0-1.1-0.2-1.3-1c-0.8-3-1.7-6-2.6-9
			c-0.6-2.2-1.3-4.4-2-6.5c-0.2-0.6-0.1-0.8,0.7-0.8c2.6,0,5.2,0,7.7,0C138.2,117.6,138.9,117.4,139.4,116.9z"/>
		<g>
			<path class="st1" d="M101.7,10.3c2.6,2.6,5.3,5.3,8,8h-8c0-2,0-4.1,0-6.1V10.3 M98.9,3.6c-0.1,0.2-0.2,0.5-0.2,0.7
				c0,2.6,0,5.3,0,7.9c0,2.7,0,5.4,0.1,8.1c-0.1,0.7,0.2,1,0.9,1c5.4,0,10.8,0,16.2,0c0.2,0,0.4-0.1,0.6-0.2
				c-0.1-0.2-0.1-0.4-0.3-0.6C110.6,15,105.1,9.5,99.6,4C99.4,3.8,99.1,3.7,98.9,3.6L98.9,3.6z"/>
		</g>
		<path class="st3" d="M31.8,105.4c1.4,0,2.9,0,4.3,0c0.8,0,0.9,0.2,0.7,0.9c-0.6,2-1.2,4-1.7,6c-0.2,0.6-0.5,1-1.2,1
			c-2.1,0-4.2,0-6.3,0c-0.7,0-0.9-0.3-0.9-0.9c0-2.1,0-4.1,0-6.2c0-0.6,0.3-0.8,0.8-0.8C28.9,105.4,30.4,105.4,31.8,105.4z"/>
		<path class="st2" d="M130.4,105.4c1.4,0,2.9,0,4.3,0c0.6,0,0.9,0.2,0.9,0.9c0,2,0,4.1,0,6.1c0,0.6-0.2,0.9-0.9,0.9
			c-2.1,0-4.2,0-6.3,0c-0.5,0-0.8-0.2-1-0.7c-0.4-1.2-0.7-2.5-1.1-3.7c-0.3-0.9-0.5-1.7-0.8-2.6c-0.2-0.8-0.1-0.9,0.7-0.9
			C127.5,105.4,129,105.4,130.4,105.4z"/>
	</g>
</g>
</svg>
