<?xml version="1.0" encoding="utf-8"?>
<!-- Generator: Adobe Illustrator 27.1.1, SVG Export Plug-In . SVG Version: 6.00 Build 0)  -->
<svg version="1.1" id="Layer_1" xmlns="http://www.w3.org/2000/svg" xmlns:xlink="http://www.w3.org/1999/xlink" x="0px" y="0px"
	 viewBox="0 0 154.9 154.9" style="enable-background:new 0 0 154.9 154.9;" xml:space="preserve">
<style type="text/css">
	.st0{fill:#447099;}
	.st1{fill:#447099;stroke:#447099;stroke-miterlimit:10;}
</style>
<g>
	<g>
		<g>
			<path class="st0" d="M20.6,154.8c-0.4,0-0.6,0-0.9,0c-4.8,0-9.6,0-14.4,0c-3.1,0-5.2-2.1-5.2-5.3c0-42.5,0-84.9,0-127.4
				c0-2.6,1.2-4.3,3.7-5.1c0.3,0,0.8,0,1.2,0c4.6,0,9.2,0,13.7,0c0.6,0,0.8,0.1,0.8,0.7c0,1.1,0,2.2,0,3.3c0,0.6-0.2,0.8-0.8,0.8
				c-4.2,0-8.5,0-12.7,0c-1,0-1,0-1,0.9C5,64.8,5,106.9,5,149c0,0.9,0,0.9,0.9,0.9c4.2,0,8.4,0,12.6,0c1,0,0.9,0,1.1,0.9
				c0.3,1.1,0.6,2.2,0.9,3.4C20.5,154.4,20.6,154.6,20.6,154.8z"/>
			<path class="st0" d="M134.4,154.8c0.1-0.3,0.2-0.5,0.3-0.8c0.3-1.1,0.6-2.2,0.8-3.3c0.1-0.5,0.3-0.7,0.8-0.7c4.3,0,8.6,0,12.9,0
				c0.6,0,0.8-0.2,0.8-0.8c0-42.2,0-84.4,0-126.5c0-0.7-0.2-0.8-0.9-0.8c-4.2,0-8.5,0-12.7,0c-0.9,0-1,0-1-0.9c0-1.1,0-2.1,0-3.2
				c0-0.5,0.1-0.7,0.7-0.7c4.6,0,9.3,0,13.9,0c2.5,0,4.6,2.1,4.7,4.7c0,0.2,0,0.5,0,0.7c0,42.4,0,84.7,0,127.1
				c0,1.9-0.6,3.6-2.2,4.6c-0.8,0.5-1.7,0.8-2.6,0.8c-5.1,0.1-10.1,0-15.2,0C134.8,154.9,134.8,154.8,134.4,154.8z"/>
		</g>
	</g>
	<g>
		<path class="st0" d="M125.3,4.2c0.9,0,1,0.2,1.1,0.3l0,0c0,0.1,0.1,0.3,0.1,0.5c0,0,0,0.1,0,0.1v0.5v144.1c0,0.7-0.1,1-0.2,1.1
			c-0.2,0.1-0.6,0.2-0.9,0.3c-0.1,0-0.2,0-0.3,0H29.6c-1,0-1.2-0.2-1.3-0.5l0-0.1l0-0.1c0,0-0.1-0.2-0.1-0.4v-10.2V77.7V5.5
			c0-0.8,0.1-0.9,0.3-1l0,0c0.1,0,0.3-0.1,0.5-0.1c0.1,0,0.3-0.1,0.5-0.1h0.1H125.3 M125.3,0.2c-31.9,0-63.9,0-95.8,0
			c-0.2,0-0.5,0-0.7,0C28,0.5,27,0.6,26.3,1.1c-1.6,1-2.2,2.5-2.2,4.4c0,24.1,0,48.1,0,72.2c0,20.7,0,41.5,0,62.2
			c0,3.4,0,6.8,0,10.2c0,1,0.3,2,0.9,2.8c1.1,1.6,2.7,2.2,4.6,2.2c31.9,0,63.8,0,95.6,0c0.2,0,0.4,0,0.5,0c0.1,0,0.2,0,0.3,0
			c0.8-0.2,1.7-0.4,2.4-0.8c1.6-1,2.2-2.6,2.2-4.5c0-48,0-96.1,0-144.1c0.1-0.3,0.1-0.6,0.1-0.8c-0.3-0.8-0.4-1.8-0.9-2.5
			C128.8,0.8,127.2,0.2,125.3,0.2L125.3,0.2z"/>
	</g>
	<path class="st1" d="M50.8,70.9c0.2,0,0.2,0,0.4,0c7.7,0,15.5,0,23.2,0c1.2,0,1.9,0.5,2.2,1.5c0.3,1.1-0.4,2.3-1.6,2.5
		c-0.2,0-0.6,0-0.8,0c-3.9,0-7.7,0-11.5,0c-4,0-7.8,0-11.8,0c-0.9,0-1.6-0.3-2-1.2C48.5,72.5,49.4,71.1,50.8,70.9z M49,84.4
		c0.3-0.9,0.9-1.4,1.8-1.5c0.2,0,0.3,0,0.5,0c17,0,20.9,0,37.9,0c0.7,0,1.4,0.2,1.9,0.7c0.5,0.7,0.5,1.3,0.2,2.1
		c-0.3,0.7-1,1.1-1.7,1.2c-0.2,0-0.5,0-0.7,0c-8.4,0-16.8,0-25.2,0c-8.5,0-3.9,0-12.3,0c-0.6,0-1.2-0.2-1.6-0.5
		C49,86,48.8,85.1,49,84.4z M102.1,94.9c0.5,0,1.1,0.1,1.6,0.3c0.8,0.4,1.1,1.4,0.8,2.3c-0.2,0.7-1,1.3-1.8,1.3c-1.6,0-3.4,0-5,0
		c-7,0-13.9,0-20.9,0c-8.6,0-17.1,0-25.7,0c-1.1,0-1.7-0.4-2.1-1.2c-0.5-1.2,0.3-2.6,1.7-2.7c0.2,0,0.4,0,0.6,0
		C68.3,94.8,85.3,94.8,102.1,94.9z M49,108.4c0.2-0.9,0.8-1.5,1.7-1.6c0.2,0,0.6,0,0.8,0c8.4,0,16.9,0,25.3,0c8.5,0,17,0,25.4,0
		c0.5,0,1.2,0.1,1.6,0.3c0.7,0.3,1,1.2,0.8,2.1c-0.2,0.7-0.8,1.2-1.6,1.4c-0.3,0-0.6,0.1-0.9,0.1c-16.9,0-33.8,0-50.7,0
		c-0.6,0-1.2-0.2-1.6-0.4C49.1,110,48.8,109.1,49,108.4z M104.5,121.5c-0.3,0.7-0.9,1.2-1.7,1.2c-0.2,0-0.4,0-0.7,0
		c-16.9,0-33.8,0-50.7,0c-0.4,0-0.8-0.1-1.2-0.2c-0.8-0.2-1.3-1.2-1.2-2.1c0.2-0.9,0.9-1.6,1.8-1.7c0.2,0,0.5,0,0.7,0
		c8.4,0,16.9,0,25.3,0c8.6,0,17.1,0,25.7,0c0.7,0,1.3,0.2,1.8,0.8C104.7,120.1,104.8,120.8,104.5,121.5z M105.4,35.8L84.8,57.2
		c-0.3,0.4-0.8,0.6-1.4,0.6c-0.5,0-1-0.2-1.4-0.6L75,50.2l-7.2,11.9c-0.3,0.5-0.8,0.8-1.4,0.9c-0.6,0.1-1.2-0.1-1.6-0.6l-4.7-4.5
		L53.8,63c-0.3,0.3-0.8,0.4-1.2,0.4c-0.6,0-1.2-0.2-1.6-0.7c-0.7-0.8-0.6-2.1,0.2-2.8l7.6-6.2c0.7-0.7,1.9-0.6,2.6,0.1l4.1,4
		L72.7,46c0.3-0.5,0.8-0.8,1.4-0.9s1.2,0.2,1.6,0.6l7.4,7.3l19.4-19.8c0.7-0.7,2-0.8,2.8-0.1C106.2,33.8,106.2,35,105.4,35.8z"/>
</g>
</svg>
