<?xml version="1.0" encoding="utf-8"?>
<!-- Generator: Adobe Illustrator 27.1.1, SVG Export Plug-In . SVG Version: 6.00 Build 0)  -->
<svg version="1.1" id="Layer_1" xmlns="http://www.w3.org/2000/svg" xmlns:xlink="http://www.w3.org/1999/xlink" x="0px" y="0px"
	 viewBox="0 0 199.2 150" style="enable-background:new 0 0 199.2 150;" xml:space="preserve">
<style type="text/css">
	.st0{fill:#447099;}
	.st1{opacity:0.5;fill:#447099;enable-background:new    ;}
	.st2{opacity:0.94;fill:#447099;enable-background:new    ;}
</style>
<g>
	<g>
		<path class="st0" d="M196.2,3v144H3V3H196.2 M72.2,129.6h3h100.3h3v-3V88.1V83v-4.8v-53v-3h-3H75.2h-3v3v39.6v4.5v16.1v0.8v40.4
			V129.6 M199.2,0H0v150h199.2V0L199.2,0z M75.2,126.6V86.2v-0.8V69.3v-4.5V25.2h100.3v53V83v5.1v38.5H75.2L75.2,126.6z"/>
	</g>
	<g>
		<path class="st0" d="M22.4,33.9h33.1v4.2H22.4V33.9z M22.4,42.5h18.3v4.2H22.4V42.5z M22.4,51.1H47v4.2H22.4V51.1z M22.4,59.8
			h22.9V64H22.4V59.8z M22.4,68.4H47v4.2H22.4V68.4z M22.4,94.5h18.3v4.2H22.4V94.5z M22.4,111.7h22.9v4.2H22.4V111.7z M19.6,124.6
			h-3.4v-4.2h3.4V124.6z M19.6,115.9h-3.4v-4.2h3.4V115.9z M19.6,107.3h-3.4v-4.2h3.4V107.3z M19.6,98.7h-3.4v-4.2h3.4V98.7z
			 M19.6,90.1h-3.4v-4.2h3.4V90.1z M19.6,81.4h-3.4v-4.2h3.4V81.4z M19.6,72.6h-3.4v-4.2h3.4V72.6z M19.6,64h-3.4v-4.2h3.4V64z
			 M19.6,55.3h-3.4v-4.2h3.4V55.3z M19.6,46.7h-3.4v-4.2h3.4V46.7z M19.6,38.1h-3.4v-4.2h3.4V38.1z M19.6,29.5h-3.4v-4.2h3.4V29.5z
			 M46.9,124.6H22.4v-4.2H47v4.2H46.9z M46.9,107.3H22.4v-4.2H47v4.2H46.9z M55.4,90.1h-33v-4.2h33.1L55.4,90.1L55.4,90.1z M59,81.4
			H22.4v-4.2H59C59,77.2,59,81.4,59,81.4z M59,29.5H22.4v-4.2H59C59,25.3,59,29.5,59,29.5z"/>
	</g>
	<path d="M137.7,96.8L137.7,96.8L137.7,96.8L137.7,96.8z"/>
	<path d="M173.8,86.6L173.8,86.6c-0.1-0.1-0.2-0.2-0.3-0.2C173.6,86.4,173.7,86.5,173.8,86.6z"/>
	<path class="st1" d="M173.8,88.8c-4.5-4-8.9-6.1-13.2-6.1c-9.5,0-15.2,10.5-15.2,10.6c-0.1,0.2-2.8,5.2-7.7,5.2
		c-5,0-10.1-5.1-15.3-15.2c-0.7-1.3-1.4-2.6-2.1-3.8c-5.3-8.8-11.3-13.2-17.7-13.2c-5.8,0-12,3.5-18.4,10.4
		c-3.1,3.3-5.7,6.8-7.3,9.3v39h97.2V91.6c0,0-0.1,0-0.1-0.1v-2.7H173.8z"/>
	<path class="st2" d="M123.7,82.5c0.2,0.3,0.4,0.7,0.5,1c0.1,0.1,0.1,0.2,0.2,0.4c0.1,0.2,0.2,0.4,0.4,0.7c0.1,0.1,0.1,0.3,0.2,0.4
		c0.1,0.2,0.2,0.4,0.3,0.6c0.1,0.1,0.2,0.3,0.2,0.4c0.1,0.2,0.2,0.4,0.3,0.5c0.1,0.1,0.2,0.3,0.2,0.4c0.1,0.2,0.2,0.3,0.3,0.5
		c0.1,0.1,0.2,0.2,0.2,0.4c0.1,0.2,0.2,0.3,0.3,0.5c0.1,0.1,0.2,0.2,0.2,0.3c0.1,0.2,0.2,0.3,0.3,0.4c0.1,0.1,0.1,0.2,0.2,0.3
		c0.1,0.1,0.2,0.3,0.3,0.4c0.1,0.1,0.1,0.2,0.2,0.3c0.1,0.1,0.2,0.3,0.3,0.4c0.1,0.1,0.1,0.2,0.2,0.2c0.1,0.2,0.3,0.3,0.4,0.5
		l0.1,0.1c0.2,0.2,0.3,0.4,0.5,0.6l0.1,0.1c0.1,0.1,0.2,0.3,0.4,0.4c0.1,0.1,0.1,0.1,0.2,0.2c0.1,0.1,0.2,0.2,0.3,0.3
		c0.1,0.1,0.1,0.1,0.2,0.2c0.1,0.1,0.2,0.2,0.3,0.3c0.1,0.1,0.1,0.1,0.2,0.2c0.1,0.1,0.2,0.2,0.3,0.3c0.1,0.1,0.1,0.1,0.2,0.2
		c0.1,0.1,0.2,0.2,0.3,0.2c0.1,0.1,0.1,0.1,0.2,0.2c0.1,0.1,0.2,0.1,0.3,0.2c0.1,0,0.1,0.1,0.2,0.1c0.1,0.1,0.2,0.1,0.3,0.2
		c0.1,0,0.1,0.1,0.2,0.1c0.1,0.1,0.2,0.1,0.3,0.2c0.1,0,0.1,0.1,0.2,0.1c0.1,0.1,0.2,0.1,0.3,0.2l0.1,0.1c0.1,0.1,0.3,0.2,0.4,0.2
		l0,0c0.1,0.1,0.3,0.1,0.4,0.2c0,0,0.1,0,0.1,0.1c0.1,0,0.2,0.1,0.3,0.1s0.1,0,0.2,0.1c0.1,0,0.2,0.1,0.2,0.1c0.1,0,0.1,0,0.2,0
		c0.1,0,0.1,0,0.2,0.1c0.1,0,0.1,0,0.2,0c0.1,0,0.1,0,0.2,0c0.1,0,0.1,0,0.2,0c0.1,0,0.1,0,0.2,0c0.1,0,0.1,0,0.2,0
		c0.1,0,0.1,0,0.2,0h0.1c0.1,0,0.1,0,0.2,0h0.1h0.1c0.2,0,0.5,0,0.7,0c0,0,0,0,0.1,0c0.2,0,0.4-0.1,0.6-0.1c0,0,0,0,0.1,0
		c0.2-0.1,0.4-0.1,0.6-0.2c0,0,0,0,0.1,0c0.2-0.1,0.4-0.2,0.6-0.3l0,0c0.2-0.1,0.4-0.2,0.6-0.3l0,0c0.2-0.1,0.3-0.2,0.5-0.3l0,0
		c0.1-0.1,0.3-0.2,0.4-0.4l0,0c0.1-0.1,0.3-0.2,0.4-0.4l0,0c0.1-0.1,0.2-0.2,0.3-0.4l0,0c0.1-0.1,0.2-0.3,0.3-0.4l0,0
		c0.1-0.1,0.2-0.2,0.3-0.4l0,0c0.1-0.1,0.2-0.2,0.2-0.3l0,0c0.1-0.1,0.1-0.2,0.2-0.2l0,0c0-0.1,0.1-0.1,0.1-0.2l0,0l0.1-0.1l0,0l0,0
		l0,0l0,0l0,0c0,0,0,0,0-0.1l0,0c0,0,0-0.1,0.1-0.1l0,0c0,0,0.1-0.1,0.1-0.2l0,0c0-0.1,0.1-0.1,0.1-0.2l0,0c0-0.1,0.1-0.2,0.2-0.2
		c0,0,0,0,0-0.1c0.1-0.1,0.1-0.2,0.2-0.3l0,0c0.1-0.1,0.1-0.2,0.2-0.3c0,0,0-0.1,0.1-0.1c0.1-0.1,0.1-0.2,0.2-0.3c0,0,0-0.1,0.1-0.1
		c0.1-0.1,0.2-0.3,0.3-0.4c0,0,0-0.1,0.1-0.1c0.1-0.1,0.2-0.2,0.3-0.3l0.1-0.1c0.1-0.1,0.2-0.3,0.3-0.4c0,0,0,0,0.1-0.1
		s0.2-0.3,0.3-0.4l0.1-0.1c0.1-0.1,0.2-0.3,0.4-0.4l0,0c0.1-0.2,0.3-0.3,0.4-0.5l0.1-0.1c0.1-0.1,0.2-0.3,0.4-0.4l0.1-0.1
		c0.2-0.2,0.3-0.3,0.5-0.5l0.1-0.1c0.1-0.1,0.3-0.3,0.4-0.4l0.1-0.1c0.2-0.2,0.4-0.3,0.5-0.5c0,0,0,0,0.1-0.1
		c0.2-0.1,0.3-0.3,0.5-0.4c0.1,0,0.1-0.1,0.2-0.1c0.2-0.1,0.3-0.3,0.5-0.4c0,0,0,0,0.1-0.1c0.2-0.1,0.4-0.3,0.6-0.4
		c0.1,0,0.1-0.1,0.2-0.1c0.2-0.1,0.3-0.2,0.5-0.3c0.1,0,0.1-0.1,0.2-0.1c0.2-0.1,0.4-0.2,0.7-0.4c0.1,0,0.1-0.1,0.2-0.1
		c0.2-0.1,0.4-0.2,0.6-0.3c0.1,0,0.1-0.1,0.2-0.1c0.2-0.1,0.5-0.2,0.7-0.3h0.1c0.2-0.1,0.4-0.2,0.7-0.2c0.1,0,0.1,0,0.2-0.1
		c0.2-0.1,0.4-0.1,0.7-0.2h0.1c0.3-0.1,0.5-0.1,0.8-0.2c0.1,0,0.1,0,0.2,0c0.2,0,0.4-0.1,0.7-0.1c0.1,0,0.1,0,0.2,0
		c0.3,0,0.6-0.1,0.8-0.1c0.1,0,0.1,0,0.2,0c0.2,0,0.5,0,0.7,0h0.1h0.1c0.2,0,0.3,0,0.5,0c0.1,0,0.2,0,0.3,0c0.2,0,0.4,0,0.5,0
		s0.2,0,0.2,0c0.3,0,0.5,0.1,0.8,0.1c0.1,0,0.1,0,0.2,0c0.2,0,0.4,0.1,0.6,0.1c0.1,0,0.2,0,0.3,0.1c0.2,0,0.3,0.1,0.5,0.1
		c0.1,0,0.2,0.1,0.3,0.1c0.2,0,0.3,0.1,0.5,0.2c0.1,0,0.2,0.1,0.3,0.1c0.2,0.1,0.3,0.1,0.5,0.2c0.1,0,0.2,0.1,0.3,0.1
		c0.2,0.1,0.4,0.2,0.6,0.2c0.1,0,0.2,0.1,0.3,0.1c0.2,0.1,0.5,0.2,0.7,0.3c0.1,0,0.1,0.1,0.2,0.1c0.3,0.2,0.6,0.3,0.9,0.5
		c0.1,0,0.2,0.1,0.3,0.2c0.2,0.1,0.4,0.3,0.7,0.4c0.1,0.1,0.2,0.1,0.3,0.2c0.2,0.1,0.4,0.3,0.6,0.4c0.1,0.1,0.3,0.2,0.4,0.3
		c0.2,0.1,0.4,0.3,0.6,0.4c0.1,0.1,0.3,0.2,0.4,0.3c0.2,0.1,0.4,0.3,0.6,0.5c0.1,0.1,0.2,0.2,0.4,0.3c0.1,0.1,0.2,0.2,0.3,0.2V79
		c-6.2-14.8-20.6-38.2-42.5-9.6c-3.2,4.2-6.5,7.3-9.8,9.5C122.2,79.8,123,81.1,123.7,82.5L123.7,82.5z"/>
	<path class="st2" d="M83,75.4c-2.4-1.6-4.5-3.3-6.1-4.6V83c0.8-1.1,1.7-2.3,2.6-3.5C80.6,78.1,81.7,76.8,83,75.4z"/>
</g>
</svg>
