<?xml version="1.0" encoding="utf-8"?>
<!-- Generator: Adobe Illustrator 27.1.1, SVG Export Plug-In . SVG Version: 6.00 Build 0)  -->
<svg version="1.1" id="Layer_1" xmlns="http://www.w3.org/2000/svg" xmlns:xlink="http://www.w3.org/1999/xlink" x="0px" y="0px"
	 viewBox="0 0 153.1 150" style="enable-background:new 0 0 153.1 150;" xml:space="preserve">
<style type="text/css">
	.st0{fill:#447099;}
</style>
<g>
	<path class="st0" d="M131,34.7c10,0,18.1,8.1,18.1,18.1S141,70.9,131,70.9s-18.1-8.1-18.1-18.1S121,34.7,131,34.7 M131,30.7
		c-12.2,0-22.1,9.9-22.1,22.1s9.9,22.1,22.1,22.1s22.1-9.9,22.1-22.1S143.2,30.7,131,30.7L131,30.7z"/>
	<path class="st0" d="M33.2,4.3c15.9,0,28.9,13,28.9,28.9s-13,28.9-28.9,28.9S4.3,49.1,4.3,33.2S17.3,4.3,33.2,4.3 M33.2,0
		C14.9,0,0,14.9,0,33.2s14.9,33.2,33.2,33.2s33.2-14.9,33.2-33.2S51.6,0,33.2,0L33.2,0z"/>
	<path class="st0" d="M33.2,4.3c15.9,0,28.9,13,28.9,28.9s-13,28.9-28.9,28.9S4.3,49.1,4.3,33.2S17.3,4.3,33.2,4.3 M33.2,0
		C14.9,0,0,14.9,0,33.2s14.9,33.2,33.2,33.2s33.2-14.9,33.2-33.2S51.6,0,33.2,0L33.2,0z"/>
	<path class="st0" d="M80.2,75.7c19.3,0,35,15.7,35,35s-15.7,35-35,35s-35-15.7-35-35S60.9,75.7,80.2,75.7 M80.2,71.4
		c-21.7,0-39.3,17.6-39.3,39.3S58.5,150,80.2,150s39.3-17.6,39.3-39.3S102,71.4,80.2,71.4L80.2,71.4z"/>
	<g>
		<path class="st0" d="M131.1,46.3c-3.6,0-6.6,2.9-6.6,6.4c0,3.6,2.9,6.5,6.4,6.6c3.6,0,6.5-2.8,6.5-6.5
			C137.5,49.3,134.7,46.4,131.1,46.3z"/>
		<path class="st0" d="M146.5,54.7c-0.8-0.3-1.2-1.1-1.2-1.9c0-0.8,0.4-1.5,1.2-1.9c0.5-0.2,0.6-0.6,0.5-1c-0.2-0.8-0.5-1.5-0.6-2.3
			c-0.1-0.7-0.5-0.8-1.1-0.8c-1.7,0-2.7-1.7-1.8-3.2c0.1-0.2,0.2-0.4,0.3-0.6c-0.1-0.2-0.2-0.4-0.4-0.5c-0.6-0.6-1.2-1.2-1.8-1.8
			c-0.4-0.4-0.7-0.5-1.3-0.1c-1.6,1-3.3,0-3.2-1.9c0-0.6-0.2-0.9-0.7-1c-0.9-0.2-1.8-0.5-2.7-0.7c-0.2,0-0.6,0.2-0.7,0.4
			c-0.4,0.8-1,1.3-2,1.3c-0.9,0-1.5-0.5-2-1.3c-0.1-0.2-0.5-0.5-0.7-0.4c-0.9,0.2-1.8,0.4-2.7,0.7c-0.4,0.1-0.7,0.3-0.7,0.9
			c0,2-1.6,2.9-3.4,2c-0.2-0.1-0.7-0.1-0.9,0c-0.7,0.6-1.4,1.3-2.1,2c-0.2,0.2-0.2,0.7-0.1,0.9c1.1,1.6-0.1,3.7-2,3.4
			c-0.2,0-0.6,0.2-0.7,0.4c-0.3,0.9-0.6,1.9-0.8,2.8c-0.1,0.4,0,0.7,0.5,1c0.8,0.3,1.3,1.1,1.2,1.9c0,0.8-0.4,1.5-1.2,1.9
			c-0.5,0.2-0.6,0.6-0.5,1c0.2,0.8,0.5,1.6,0.7,2.4c0.1,0.6,0.4,0.8,1,0.7c1.8,0,2.8,1.7,1.8,3.3c-0.3,0.4-0.2,0.7,0.1,1.1
			c0.7,0.6,1.3,1.3,2,1.9c0.2,0.2,0.7,0.2,0.9,0.1c1.8-1,3.4-0.1,3.4,1.9c0,0.3,0.3,0.7,0.5,0.8c0.9,0.3,1.9,0.6,2.8,0.7
			c0.2,0,0.6-0.2,0.7-0.4c0.4-0.8,1-1.3,2-1.3c0.9,0,1.5,0.5,2,1.3c0.1,0.2,0.5,0.5,0.7,0.4c1-0.2,1.9-0.4,2.8-0.7
			c0.3-0.1,0.6-0.5,0.6-0.8c0.1-2.1,1.6-2.9,3.5-1.9c0.2,0.1,0.7,0.1,0.8-0.1c0.7-0.6,1.4-1.3,2-2c0.2-0.2,0.2-0.7,0.1-0.9
			c-1.1-1.6,0.1-3.7,1.9-3.4c0.2,0,0.7-0.2,0.8-0.4c0.3-0.9,0.6-1.9,0.8-2.8C147.1,55.2,146.9,54.9,146.5,54.7z M131.2,63.6
			c-5.9,0.1-10.9-4.8-10.9-10.7s4.8-10.7,10.7-10.7c6,0,10.8,4.8,10.8,10.7C141.8,58.7,137,63.5,131.2,63.6z"/>
	</g>
	<g>
		<g>
			<path class="st0" d="M80.3,83.7c7.3,0,14.2,2.8,19.3,8c5.1,5.1,7.8,11.8,7.8,19c-0.1,14.9-12.3,27-27.3,27
				c-14.9,0-27.1-12.2-27.1-27.1c0-7.2,2.9-14,8-19.1C66.2,86.5,73,83.7,80.3,83.7 M80.3,125.4c8,0,14.7-6.5,14.8-14.5
				c0.1-4-1.4-7.7-4.2-10.5c-2.8-2.8-6.5-4.4-10.5-4.4l-0.2,0c-8.1,0-14.5,6.4-14.6,14.6c0,8,6.5,14.7,14.5,14.8L80.3,125.4
				 M80.3,80.7C63.6,80.7,50.1,94,50,110.6c0,16.6,13.5,30.1,30.1,30.1c16.7,0,30.2-13.4,30.3-30C110.5,94.2,97,80.7,80.3,80.7
				L80.3,80.7z M80.3,122.4c-0.1,0-0.1,0-0.2,0c-6.4-0.1-11.5-5.4-11.5-11.8c0.1-6.4,5.2-11.6,11.6-11.6c0.1,0,0.1,0,0.2,0
				c6.6,0.1,11.8,5.4,11.7,11.9C92,117.2,86.7,122.4,80.3,122.4L80.3,122.4z"/>
		</g>
		<path class="st0" d="M80.4,103.2c-4.2,0-7.5,3.2-7.5,7.4c0,4.2,3.3,7.5,7.4,7.5s7.5-3.3,7.5-7.4S84.5,103.2,80.4,103.2z"/>
	</g>
	<g>
		<path class="st0" d="M33.2,30.4c-1.6,0-2.8,1.2-2.8,2.8c0,1.5,1.3,2.8,2.8,2.8c1.6,0,2.8-1.2,2.8-2.8C36,31.6,34.8,30.4,33.2,30.4
			z"/>
		<g>
			<path class="st0" d="M33.2,12.2c0.6,0.7,1.4,1.2,2.5,1.4l0.2,0h0.2c1.1,0,1.9-0.3,2.5-0.7c0.6,1.3,1.7,1.9,2.4,2.2
				c0.5,0.2,1,0.3,1.4,0.3c0.5,0,0.9-0.1,1.4-0.3c0.1,1.2,0.8,2.3,2.5,3.1l1.2,0.6l0.7-0.3c-0.1,0.9,0.1,1.9,1,3
				c0.8,1,1.7,1.3,2.4,1.4c-0.3,1-0.2,2.1,0.3,3.1c0.5,1,1.2,1.6,1.8,1.9c-0.7,1-0.7,2.2-0.6,2.8l0,0l0,0c0.1,0.7,0.4,1.6,1.2,2.4
				c-0.8,0.6-1.3,1.5-1.4,2.4c-0.1,0.6-0.1,1.6,0.6,2.6c-0.8,0.4-1.5,1.1-2,2.4l0,0.1l0,0.1c-0.2,0.6-0.4,1.6,0,2.6
				c-0.7,0.2-1.6,0.6-2.3,1.6L49.2,45l-0.1,0.1c-0.5,0.9-0.8,1.7-0.7,2.5c-0.1,0-0.1,0-0.2,0c-1.1,0-1.9,0.5-2.3,0.8
				c0,0-0.1,0-0.1,0.1c-1.2,0.7-1.7,1.7-1.8,2.6c-0.5-0.2-0.9-0.2-1.3-0.2c-0.5,0-1,0.1-1.6,0.3l-0.4,0.1l-0.2,0.2l0,0
				c-0.9,0.5-1.4,1.1-1.7,1.7c-0.7-0.5-1.5-0.7-2-0.7c-0.3,0-0.6,0-0.9,0.1l0,0c-1.3,0.2-2.1,0.8-2.6,1.4c-0.5-0.6-1.3-1.1-2.6-1.4
				l-0.1,0l0,0l0,0c-0.2,0-0.4-0.1-0.7-0.1c-0.6,0-1.4,0.1-2.1,0.6c-0.3-0.7-0.9-1.3-2-1.8l-0.1,0c-0.4-0.2-1.1-0.5-1.9-0.5
				c-0.3,0-0.8,0-1.3,0.2c-0.1-0.9-0.6-1.8-1.7-2.6c-0.3-0.2-1.2-0.9-2.4-0.9c-0.1,0-0.2,0-0.3,0c0-0.8-0.2-1.8-1-2.7l-0.1-0.1
				L17,44.7c-0.4-0.4-1-1-2.1-1.3c0.3-0.7,0.3-1.6-0.1-2.6l0,0l0-0.2l-0.1-0.3c-0.4-1-1.1-1.7-1.9-2.1c0.4-0.6,0.6-1.4,0.6-2.5
				c0-0.5-0.1-1.8-1.2-2.8c0.8-0.7,1.2-1.7,1.2-2.6l0,0c0.2-1.2-0.1-2.1-0.6-2.7c1-0.5,2-1.4,2.4-3.3l0.3-1.6l-0.2-0.2
				c0.6-0.2,1.3-0.6,2-1.4c0.6-0.7,0.9-1.5,0.9-2.3l0.8,0.5l1.7-1.7c0.1-0.1,0.3-0.2,0.4-0.3l0.2-0.2l0.2-0.2c0.7-0.7,1-1.4,1.1-2
				c0.4,0.1,0.7,0.2,1.1,0.2c0.7,0,1.3-0.2,1.6-0.4c1.1-0.3,1.9-1,2.3-1.9c0.6,0.4,1.4,0.7,2.4,0.7h0.2l0.2,0
				C31.8,13.4,32.6,12.9,33.2,12.2 M33.2,23.2c-2.7,0-5.3,1.1-7.1,3c-1.9,1.9-2.9,4.4-2.8,7.1c0,5.5,4.5,10,10,10c0.1,0,0.2,0,0.3,0
				c5.4-0.1,9.8-4.7,9.8-10.2c0-2.7-1-5.1-2.9-7c-1.9-1.9-4.4-2.9-7-2.9c0,0,0,0,0,0C33.3,23.2,33.2,23.2,33.2,23.2 M33.3,7.8
				c-0.2,0-0.4,0-0.6,0.1c-1,0.2-1.5,0.9-1.6,1.8c-0.1,0.6-0.3,0.8-0.9,0.9c-0.6,0-0.9-0.1-1.1-0.7c-0.3-0.8-1-1.3-1.9-1.3
				c-0.3,0-0.5,0-0.8,0.1c-0.9,0.3-1.6,1.4-1.3,2.4c0.1,0.5-0.1,0.8-0.5,0.9c-0.2,0.1-0.5,0.2-0.7,0.2c-0.2,0-0.4-0.1-0.6-0.3
				c-0.5-0.7-1.2-1-1.9-1c-0.3,0-0.6,0.1-0.9,0.2c-1,0.6-1.3,1.6-0.8,2.9c0.2,0.4,0.1,0.6-0.2,0.9c-0.3,0.2-0.6,0.4-0.8,0.6
				c-0.3-0.2-0.5-0.4-0.7-0.5c-0.4-0.3-0.9-0.4-1.3-0.4c-0.6,0-1.1,0.2-1.5,0.6c-0.7,0.7-0.8,1.9-0.2,2.7c0.4,0.5,0.4,0.9,0,1.4
				c-0.2,0.3-0.5,0.4-0.7,0.4c-0.2,0-0.4-0.1-0.6-0.2c-0.2-0.1-0.5-0.2-0.8-0.2c-0.6,0-1.1,0.3-1.5,0.8c-0.6,0.7-0.7,1.6-0.3,2.3
				c0.3,0.5,0.8,0.9,1.2,1.3C12.1,24.6,11.8,25,11,25c-0.1,0-0.3,0-0.5,0c-0.1,0-0.1,0-0.2,0c-0.2,0-0.5,0.1-0.7,0.2
				c-0.7,0.4-1.1,1.1-1.1,1.9c0,1,0.6,1.6,1.4,1.9c0.8,0.3,0.5,0.8,0.5,1.3s-0.3,0.6-0.8,0.6c-1.2,0.2-1.9,0.8-1.9,2
				c0,1.2,0.7,2,1.9,2.2c0.5,0.1,0.8,0.1,0.8,0.7c0,0.5,0,1-0.6,1.2c-1.1,0.4-1.6,1.5-1.3,2.6c0.3,0.9,1.1,1.4,2,1.4
				c0.1,0,0.3,0,0.4,0c0.1,0,0.2,0,0.3,0c0.3,0,0.5,0.1,0.7,0.5c0.1,0.5,0.5,0.9-0.2,1.3c-1,0.7-1.2,1.8-0.7,2.8
				c0.4,0.7,1.1,1.1,1.8,1.1c0.3,0,0.6-0.1,0.9-0.2c0.2-0.1,0.4-0.1,0.5-0.1c0.3,0,0.4,0.2,0.7,0.4c0.4,0.5,0.5,0.8,0,1.3
				c-0.2,0.2-0.3,0.6-0.4,0.9c-0.2,0.9,0.2,1.6,1,2.1c0.4,0.2,0.8,0.3,1.1,0.3c0.5,0,0.9-0.2,1.4-0.5c0.2-0.2,0.4-0.3,0.5-0.3
				c0.2,0,0.4,0.1,0.6,0.3c0.4,0.3,0.7,0.5,0.5,1.2c-0.5,1.1-0.1,2.3,0.8,2.8c0.3,0.2,0.7,0.3,1.1,0.3c0.7,0,1.3-0.4,1.8-1
				c0.2-0.3,0.4-0.4,0.6-0.4c0.2,0,0.3,0.1,0.5,0.2c0.4,0.2,0.9,0.3,0.7,1c-0.3,1.1,0.4,2.1,1.6,2.4c0.2,0.1,0.3,0.1,0.5,0.1
				c0.8,0,1.6-0.5,1.9-1.3c0.2-0.4,0.3-0.7,0.7-0.7c0.1,0,0.1,0,0.2,0c0.5,0.1,1.1,0.1,1.2,0.9c0.1,1.2,1.1,1.9,2.1,1.9
				s1.9-0.8,2.1-1.9c0.1-0.8,0.7-0.8,1.2-0.9c0.1,0,0.2,0,0.3,0c0.4,0,0.5,0.4,0.6,0.6c0.4,0.9,1.3,1.4,2,1.4c0.1,0,0.2,0,0.4,0
				c1.2-0.3,1.8-1.2,1.6-2.5c-0.1-0.8,0.4-0.8,0.8-1.1c0.2-0.1,0.3-0.1,0.4-0.1c0.3,0,0.5,0.1,0.7,0.4c0.5,0.6,1.1,0.9,1.7,0.9
				c0.4,0,0.7-0.1,1.1-0.3c0.9-0.5,1.3-1.7,0.9-2.7c-0.2-0.5-0.3-0.8,0.2-1.1c0.3-0.2,0.6-0.4,0.9-0.4c0.2,0,0.3,0.1,0.5,0.2
				c0.5,0.4,0.9,0.6,1.4,0.6c0.5,0,1-0.2,1.4-0.7c0.8-0.8,0.9-1.9,0.1-2.8c-0.4-0.5-0.2-0.8,0.1-1.3c0.2-0.3,0.4-0.4,0.7-0.4
				c0.1,0,0.3,0,0.4,0.1c0.3,0.1,0.6,0.2,0.9,0.2c0.7,0,1.4-0.4,1.8-1c0.6-1,0.4-2.2-0.6-2.8c-0.4-0.3-0.6-0.5-0.4-1.1
				c0.2-0.4,0.3-0.8,0.9-0.8c0.1,0,0.2,0,0.3,0c0.2,0,0.3,0.1,0.5,0.1c0.9,0,1.7-0.7,1.9-1.7c0.2-0.9-0.3-2-1.3-2.4
				c-0.4-0.2-0.8-0.3-0.7-0.9c0-0.1,0.1-0.5,0.9-0.6c1.2-0.1,1.9-1.1,1.9-2.2c0-1-0.8-1.9-1.7-1.9c-0.7-0.1-0.9-0.3-1-0.9
				c-0.1-0.7,0.2-0.9,0.7-1.1c1.3-0.6,1.7-2,0.9-3.1c-0.4-0.7-1.1-0.9-1.8-0.9c-0.1,0-0.3,0-0.4,0c-0.1,0-0.2,0-0.2,0
				c-0.3,0-0.5-0.2-0.7-0.5c-0.3-0.6-0.2-1,0.3-1.4c0.9-0.7,1.1-1.9,0.5-2.8c-0.3-0.6-1-0.9-1.7-0.9c-0.3,0-0.6,0.1-0.9,0.2
				c-0.2,0.1-0.4,0.2-0.6,0.2c-0.2,0-0.4-0.1-0.6-0.4c-0.4-0.5-0.5-0.8-0.1-1.4c1.1-1.4,0.2-3.4-1.6-3.4c-0.7,0-1.4,0.4-2.2,0.7
				c-1-0.5-1-0.5-0.7-1.8c0.2-1-0.2-2-1.1-2.5c-0.3-0.1-0.6-0.2-0.9-0.2c-0.6,0-1.3,0.3-1.7,0.8c-0.3,0.3-0.5,0.5-0.8,0.5
				c-0.1,0-0.3,0-0.5-0.1c-0.6-0.2-0.7-0.6-0.7-1.2c0.1-1.1-0.5-2-1.4-2.3c-0.3-0.1-0.5-0.1-0.7-0.1c-0.8,0-1.5,0.4-1.9,1.3
				c-0.2,0.6-0.6,0.7-1.2,0.7c-0.6-0.1-0.8-0.4-0.9-0.9c0-0.3-0.2-0.7-0.4-1C34.5,8.1,34,7.8,33.3,7.8L33.3,7.8z M33.2,40.3
				c-3.8,0-7-3.2-7-7c-0.1-3.9,3.1-7.1,7-7.1c0.1,0,0.1,0,0.2,0c3.8,0,6.9,3.1,6.9,6.9c0,3.9-3.1,7.1-6.9,7.2
				C33.3,40.3,33.3,40.3,33.2,40.3L33.2,40.3z"/>
		</g>
	</g>
	<path class="st0" d="M135.7,35.3c-0.4-1.5,1.2-2.2,1.2-3.8l-93.6-30c0.1,1.5,0.1,3.1,0.2,4.7L135.7,35.3z"/>
	<path class="st0" d="M144.9,64.5L112,125.4c0.4,0.3,0.6,0.6,0.9,1c1.1,0.3,2,1.1,2.6,1.8L151,62v-0.1
		C149.7,60.9,144.9,64.5,144.9,64.5z"/>
	<path class="st0" d="M48.1,124.6L6.8,45l-0.5-0.2c-0.9,1.1-1.3,2.6-3.2,2.6l43.2,83.3l0.3,0.3c0.3-1.2,1.1-2.2,2.1-2.9
		C48.2,127,48,125.8,48.1,124.6z"/>
</g>
</svg>
